<svg width="16" height="16" viewBox="0 0 16 16" fill="none" xmlns="http://www.w3.org/2000/svg">
<path fill-rule="evenodd" clip-rule="evenodd" d="M10 0.833496C10.2761 0.833496 10.5 1.05735 10.5 1.3335V4.00016C10.5 4.27631 10.2761 4.50016 10 4.50016C9.72386 4.50016 9.5 4.27631 9.5 4.00016V3.16683H7C6.72386 3.16683 6.5 2.94297 6.5 2.66683C6.5 2.39069 6.72386 2.16683 7 2.16683H9.5V1.3335C9.5 1.05735 9.72386 0.833496 10 0.833496ZM1.5 6.66683C1.5 6.39069 1.72386 6.16683 2 6.16683H14C14.2761 6.16683 14.5 6.39069 14.5 6.66683V12.6668C14.5 13.6794 13.6792 14.5002 12.6667 14.5002H3.33333C2.32082 14.5002 1.5 13.6794 1.5 12.6668V6.66683ZM2.5 7.16683V12.6668C2.5 13.1271 2.87309 13.5002 3.33333 13.5002H12.6667C13.1269 13.5002 13.5 13.1271 13.5 12.6668V7.16683H2.5Z" fill="url(#paint0_linear_62_960)"/>
<path fill-rule="evenodd" clip-rule="evenodd" d="M3.33333 3.1665C2.8731 3.1665 2.5 3.5396 2.5 3.99984V6.6665C2.5 6.94265 2.27614 7.1665 2 7.1665C1.72386 7.1665 1.5 6.94265 1.5 6.6665V3.99984C1.5 2.98731 2.32081 2.1665 3.33333 2.1665H4.66667C4.94281 2.1665 5.16667 2.39036 5.16667 2.6665C5.16667 2.94265 4.94281 3.1665 4.66667 3.1665H3.33333Z" fill="url(#paint1_linear_62_960)"/>
<path fill-rule="evenodd" clip-rule="evenodd" d="M4.66675 0.833496C4.94289 0.833496 5.16675 1.05735 5.16675 1.3335V4.00016C5.16675 4.27631 4.94289 4.50016 4.66675 4.50016C4.39061 4.50016 4.16675 4.27631 4.16675 4.00016V1.3335C4.16675 1.05735 4.39061 0.833496 4.66675 0.833496Z" fill="url(#paint2_linear_62_960)"/>
<path fill-rule="evenodd" clip-rule="evenodd" d="M11.8333 2.6665C11.8333 2.39036 12.0571 2.1665 12.3333 2.1665H12.6666C13.6791 2.1665 14.4999 2.98732 14.4999 3.99984V6.6665C14.4999 6.94265 14.2761 7.1665 13.9999 7.1665C13.7238 7.1665 13.4999 6.94265 13.4999 6.6665V3.99984C13.4999 3.53959 13.1268 3.1665 12.6666 3.1665H12.3333C12.0571 3.1665 11.8333 2.94265 11.8333 2.6665Z" fill="url(#paint3_linear_62_960)"/>
<defs>
<linearGradient id="paint0_linear_62_960" x1="1.5" y1="14.5002" x2="15.9453" y2="3.70736" gradientUnits="userSpaceOnUse">
<stop stop-color="#4E6AFF"/>
<stop offset="1" stop-color="#77BAAD"/>
</linearGradient>
<linearGradient id="paint1_linear_62_960" x1="1.5" y1="7.1665" x2="6.26708" y2="4.42063" gradientUnits="userSpaceOnUse">
<stop stop-color="#4E6AFF"/>
<stop offset="1" stop-color="#77BAAD"/>
</linearGradient>
<linearGradient id="paint2_linear_62_960" x1="4.16675" y1="4.50016" x2="5.82225" y2="4.14552" gradientUnits="userSpaceOnUse">
<stop stop-color="#4E6AFF"/>
<stop offset="1" stop-color="#77BAAD"/>
</linearGradient>
<linearGradient id="paint3_linear_62_960" x1="11.8333" y1="7.1665" x2="15.7612" y2="5.52103" gradientUnits="userSpaceOnUse">
<stop stop-color="#4E6AFF"/>
<stop offset="1" stop-color="#77BAAD"/>
</linearGradient>
</defs>
</svg>
