<svg width="12" height="12" viewBox="0 0 12 12" fill="none" xmlns="http://www.w3.org/2000/svg">
<path fill-rule="evenodd" clip-rule="evenodd" d="M0.227072 0.22703C0.519965 -0.0658633 0.994839 -0.0658636 1.28773 0.22703L6.00004 4.93934L10.7124 0.22703C11.0052 -0.0658633 11.4801 -0.0658637 11.773 0.22703C12.0659 0.519923 12.0659 0.994797 11.773 1.28769L7.0607 6L11.773 10.7123C12.0659 11.0052 12.0659 11.4801 11.773 11.773C11.4801 12.0659 11.0052 12.0659 10.7124 11.773L6.00004 7.06066L1.28773 11.773C0.994839 12.0659 0.519965 12.0659 0.227072 11.773C-0.0658213 11.4801 -0.0658213 11.0052 0.227072 10.7123L4.93938 6L0.227072 1.28769C-0.0658213 0.994797 -0.0658213 0.519923 0.227072 0.22703Z" fill="#FCFCFC"/>
</svg>
