<svg width="32" height="32" viewBox="0 0 32 32" fill="none" xmlns="http://www.w3.org/2000/svg">
<path fill-rule="evenodd" clip-rule="evenodd" d="M5.3335 6C5.3335 5.11599 5.68464 4.26818 6.30968 3.64304C6.93472 3.0179 7.78248 2.66664 8.6665 2.6665H23.3335C24.2175 2.66664 25.0653 3.0179 25.6903 3.64304C26.3154 4.26818 26.6665 5.11599 26.6665 6V28.667C26.6665 28.8011 26.6261 28.932 26.5506 29.0428C26.475 29.1535 26.3678 29.2389 26.2429 29.2878C26.1181 29.3367 25.9814 29.3468 25.8507 29.3167C25.7201 29.2867 25.6015 29.218 25.5105 29.1195L23.616 27.071C23.6037 27.0577 23.5888 27.0471 23.5723 27.0397C23.5557 27.0324 23.5379 27.0285 23.5198 27.0282C23.5017 27.028 23.4837 27.0315 23.467 27.0384C23.4503 27.0453 23.4351 27.0555 23.4225 27.0685L22.007 28.5205C21.8669 28.6642 21.6989 28.7776 21.5133 28.8537C21.3277 28.9298 21.1284 28.967 20.9278 28.963C20.7272 28.959 20.5296 28.9139 20.3471 28.8305C20.1646 28.7471 20.0012 28.6271 19.867 28.478L18.609 27.081C18.5968 27.0675 18.5819 27.0566 18.5654 27.049C18.5488 27.0414 18.5308 27.0373 18.5126 27.0369C18.4944 27.0366 18.4763 27.0399 18.4594 27.0468C18.4425 27.0537 18.4272 27.064 18.4145 27.077L17.007 28.5205C16.8669 28.6642 16.6989 28.7776 16.5133 28.8537C16.3277 28.9298 16.1284 28.967 15.9278 28.963C15.7272 28.959 15.5296 28.9139 15.3471 28.8305C15.1646 28.7471 15.0012 28.6271 14.867 28.478L13.609 27.081C13.5968 27.0675 13.5819 27.0566 13.5654 27.049C13.5488 27.0414 13.5308 27.0373 13.5126 27.0369C13.4944 27.0366 13.4763 27.0399 13.4594 27.0468C13.4425 27.0537 13.4272 27.064 13.4145 27.077L12.007 28.5205C11.8669 28.6642 11.6989 28.7776 11.5133 28.8537C11.3277 28.9298 11.1284 28.967 10.9278 28.963C10.7272 28.959 10.5296 28.9139 10.3471 28.8305C10.1646 28.7471 10.0012 28.6271 9.867 28.478L8.617 27.089C8.60467 27.0753 8.58965 27.0644 8.57288 27.0568C8.55611 27.0492 8.53795 27.0451 8.51954 27.0449C8.50114 27.0447 8.48288 27.0482 8.46592 27.0554C8.44896 27.0626 8.43367 27.0732 8.421 27.0865L6.4835 29.126C6.39169 29.2228 6.27297 29.2897 6.14269 29.3183C6.01241 29.3469 5.87655 29.3357 5.7527 29.2862C5.62884 29.2367 5.52268 29.1512 5.44795 29.0407C5.37322 28.9302 5.33335 28.7999 5.3335 28.6665V6ZM8.6665 4C8.13606 4 7.62736 4.21072 7.25228 4.58579C6.87721 4.96086 6.6665 5.46957 6.6665 6V26.997L7.454 26.168C7.59329 26.0213 7.76142 25.9051 7.94781 25.8265C8.13421 25.748 8.33484 25.7088 8.53709 25.7115C8.73934 25.7143 8.93884 25.7588 9.12305 25.8423C9.30727 25.9259 9.4722 26.0466 9.6075 26.197L10.8575 27.586C10.8697 27.5996 10.8846 27.6106 10.9012 27.6182C10.9178 27.6258 10.9358 27.6299 10.9541 27.6303C10.9724 27.6307 10.9906 27.6273 11.0075 27.6204C11.0244 27.6134 11.0397 27.6031 11.0525 27.59L12.46 26.146C12.6001 26.0024 12.7681 25.889 12.9538 25.8129C13.1394 25.7369 13.3387 25.6997 13.5393 25.7037C13.7399 25.7078 13.9375 25.7529 14.12 25.8364C14.3024 25.9198 14.4658 26.0399 14.6 26.189L15.8575 27.586C15.8697 27.5996 15.8846 27.6106 15.9012 27.6182C15.9178 27.6258 15.9358 27.6299 15.9541 27.6303C15.9724 27.6307 15.9906 27.6273 16.0075 27.6204C16.0244 27.6134 16.0397 27.6031 16.0525 27.59L17.46 26.146C17.6001 26.0024 17.7681 25.889 17.9538 25.8129C18.1394 25.7369 18.3387 25.6997 18.5393 25.7037C18.7399 25.7078 18.9375 25.7529 19.12 25.8364C19.3024 25.9198 19.4658 26.0399 19.6 26.189L20.8575 27.586C20.8697 27.5996 20.8846 27.6106 20.9012 27.6182C20.9178 27.6258 20.9358 27.6299 20.9541 27.6303C20.9724 27.6307 20.9906 27.6273 21.0075 27.6204C21.0244 27.6134 21.0397 27.6031 21.0525 27.59L22.4675 26.138C22.6064 25.9954 22.7729 25.8826 22.9568 25.8064C23.1407 25.7302 23.3382 25.6923 23.5373 25.6949C23.7363 25.6975 23.9327 25.7407 24.1146 25.8217C24.2964 25.9026 24.4599 26.0198 24.595 26.166L25.3335 26.964V6C25.3335 5.46957 25.1228 4.96086 24.7477 4.58579C24.3726 4.21072 23.8639 4 23.3335 4H8.6665Z" fill="#EF9533"/>
<path fill-rule="evenodd" clip-rule="evenodd" d="M21.1381 10.1956C21.3986 10.4556 21.3986 10.8781 21.1381 11.1386L11.8051 20.4716C11.6801 20.5966 11.5106 20.6669 11.3338 20.667C11.157 20.667 10.9874 20.5968 10.8624 20.4718C10.7373 20.3469 10.667 20.1773 10.667 20.0005C10.6669 19.8237 10.7371 19.6541 10.8621 19.5291L20.1956 10.1951C20.4556 9.9351 20.8781 9.9351 21.1381 10.1951V10.1956ZM12.2666 12.2671C12.4434 12.2671 12.613 12.1969 12.7381 12.0718C12.8631 11.9468 12.9334 11.7772 12.9334 11.6003C12.9334 11.4235 12.8631 11.2539 12.7381 11.1289C12.613 11.0038 12.4434 10.9336 12.2666 10.9336C12.0898 10.9336 11.9203 11.0038 11.7953 11.1288C11.6703 11.2538 11.6001 11.4233 11.6001 11.6001C11.6001 11.7769 11.6703 11.9464 11.7953 12.0714C11.9203 12.1964 12.0898 12.2671 12.2666 12.2671ZM12.2666 13.6001C12.797 13.6001 13.3057 13.3894 13.6808 13.0143C14.0559 12.6392 14.2666 12.1305 14.2666 11.6001C14.2666 11.0697 14.0559 10.561 13.6808 10.1859C13.3057 9.81081 12.797 9.6001 12.2666 9.6001C11.7362 9.6001 11.2275 9.81081 10.8524 10.1859C10.4773 10.561 10.2666 11.0697 10.2666 11.6001C10.2666 12.1305 10.4773 12.6392 10.8524 13.0143C11.2275 13.3894 11.7362 13.6001 12.2666 13.6001ZM19.7336 19.7336C19.8211 19.7336 19.9078 19.7164 19.9887 19.6829C20.0695 19.6494 20.143 19.6003 20.2049 19.5384C20.2668 19.4765 20.3159 19.403 20.3494 19.3222C20.3829 19.2413 20.4001 19.1546 20.4001 19.0671C20.4001 18.9796 20.3829 18.8929 20.3494 18.812C20.3159 18.7312 20.2668 18.6577 20.2049 18.5958C20.143 18.5339 20.0695 18.4848 19.9887 18.4513C19.9078 18.4178 19.8211 18.4006 19.7336 18.4006C19.5568 18.4006 19.3873 18.4708 19.2623 18.5958C19.1373 18.7208 19.0671 18.8903 19.0671 19.0671C19.0671 19.2439 19.1373 19.4134 19.2623 19.5384C19.3873 19.6634 19.5568 19.7336 19.7336 19.7336ZM19.7336 21.0671C20.264 21.0671 20.7727 20.8564 21.1478 20.4813C21.5229 20.1062 21.7336 19.5975 21.7336 19.0671C21.7336 18.5367 21.5229 18.028 21.1478 17.6529C20.7727 17.2778 20.264 17.0671 19.7336 17.0671C19.2032 17.0671 18.6945 17.2778 18.3194 17.6529C17.9443 18.028 17.7336 18.5367 17.7336 19.0671C17.7336 19.5975 17.9443 20.1062 18.3194 20.4813C18.6945 20.8564 19.2032 21.0671 19.7336 21.0671Z" fill="#EF9533"/>
</svg>
