<svg width="16" height="14" viewBox="0 0 16 14" fill="none" xmlns="http://www.w3.org/2000/svg">
<path d="M8.71776 2.8106C8.99722 2.65209 9.21633 2.40552 9.34091 2.10937C9.46548 1.81322 9.48849 1.48417 9.40637 1.17357C9.32424 0.862964 9.14158 0.58829 8.88691 0.392417C8.63224 0.196545 8.31988 0.0904949 7.99859 0.0908211C7.67731 0.0911472 7.36517 0.197831 7.11089 0.39422C6.85662 0.59061 6.67452 0.865654 6.59303 1.17642C6.51153 1.48719 6.53521 1.8162 6.66038 2.11209C6.78556 2.40798 7.00517 2.65411 7.28496 2.81205L7.27768 2.82515C6.80129 3.81935 6.13944 5.24338 5.11757 5.77793C4.27825 6.21649 3.07382 5.99612 2.17923 5.83175C2.16488 5.62834 2.0938 5.43302 1.97406 5.26795C1.85432 5.10289 1.69071 4.97469 1.50179 4.8979C1.31288 4.82111 1.10622 4.7988 0.905272 4.83351C0.704321 4.86822 0.517122 4.95856 0.364914 5.09427C0.212706 5.22998 0.101584 5.40563 0.0441545 5.6013C-0.0132744 5.79697 -0.0147106 6.00481 0.040009 6.20125C0.0947285 6.39769 0.203413 6.57486 0.353731 6.71267C0.504049 6.85047 0.689982 6.94338 0.890434 6.98086L3.03455 12.5155C3.19356 12.9258 3.47292 13.2785 3.83597 13.5272C4.19902 13.7759 4.62878 13.909 5.06884 13.909H10.931C11.371 13.909 11.8008 13.7759 12.1638 13.5272C12.5269 13.2785 12.8062 12.9258 12.9653 12.5155L15.1086 6.98086C15.3078 6.94379 15.4928 6.85199 15.6427 6.71574C15.7927 6.57949 15.9017 6.40417 15.9576 6.20944C16.0135 6.01471 16.0141 5.80825 15.9593 5.6132C15.9045 5.41816 15.7964 5.24223 15.6473 5.10513C15.4981 4.96803 15.3137 4.87518 15.1147 4.83698C14.9157 4.79879 14.7101 4.81675 14.5207 4.88886C14.3314 4.96098 14.1659 5.08439 14.0427 5.24527C13.9196 5.40616 13.8437 5.59815 13.8235 5.79975C12.9078 5.9183 11.7274 6.06957 10.8822 5.62811C9.88073 5.10446 9.20942 3.77862 8.71776 2.8106Z" fill="#9F9E9F"/>
</svg>
