<svg width="16" height="28" viewBox="0 0 16 28" fill="none" xmlns="http://www.w3.org/2000/svg">
<path d="M13.4803 24H2.51969C1.85142 24 1.21053 23.735 0.737999 23.2632C0.265466 22.7914 0 22.1516 0 21.4844V6.5156C0 5.84842 0.265466 5.20857 0.737999 4.7368C1.21053 4.26504 1.85142 4 2.51969 4H13.4803C14.1486 4 14.7895 4.26504 15.262 4.7368C15.7345 5.20857 16 5.84842 16 6.5156V21.4844C16 22.1516 15.7345 22.7914 15.262 23.2632C14.7895 23.735 14.1486 24 13.4803 24ZM2.51969 5.00624C2.11873 5.00624 1.73419 5.16526 1.45067 5.44832C1.16715 5.73138 1.00787 6.11529 1.00787 6.5156V21.4844C1.00787 21.8847 1.16715 22.2686 1.45067 22.5517C1.73419 22.8347 2.11873 22.9938 2.51969 22.9938H13.4803C13.8813 22.9938 14.2658 22.8347 14.5493 22.5517C14.8328 22.2686 14.9921 21.8847 14.9921 21.4844V6.5156C14.9921 6.11529 14.8328 5.73138 14.5493 5.44832C14.2658 5.16526 13.8813 5.00624 13.4803 5.00624H2.51969Z" fill="#FDFDFD"/>
<path d="M7.99828 23.7781C7.25076 23.7781 6.52003 23.4682 5.89849 22.8878C5.27695 22.3073 4.79252 21.4822 4.50645 20.5169C4.22039 19.5516 4.14554 18.4895 4.29137 17.4647C4.43721 16.4399 4.79717 15.4986 5.32575 14.7598C5.85433 14.021 6.52777 13.5179 7.26093 13.3141C7.99409 13.1102 8.75402 13.2148 9.44464 13.6147C10.1353 14.0145 10.7255 14.6916 11.1408 15.5604C11.5561 16.4291 11.7778 17.4505 11.7778 18.4953C11.7765 19.8958 11.3778 21.2384 10.6693 22.2287C9.96083 23.219 9.00026 23.7762 7.99828 23.7781ZM7.99828 14.6213C7.4501 14.6213 6.91423 14.8485 6.45843 15.2742C6.00264 15.6999 5.64739 16.3049 5.43761 17.0128C5.22783 17.7207 5.17294 18.4996 5.27988 19.2511C5.38683 20.0026 5.6508 20.6929 6.03842 21.2347C6.42605 21.7764 6.91991 22.1454 7.45756 22.2949C7.99521 22.4444 8.55249 22.3677 9.05895 22.0744C9.5654 21.7812 9.99827 21.2847 10.3028 20.6476C10.6074 20.0105 10.7699 19.2615 10.7699 18.4953C10.7694 17.4681 10.4772 16.4831 9.95755 15.7568C9.43787 15.0304 8.7332 14.622 7.99828 14.6213ZM7.99828 10.5698C7.54977 10.5698 7.11133 10.3839 6.7384 10.0356C6.36548 9.6873 6.07482 9.19227 5.90318 8.6131C5.73154 8.03392 5.68664 7.39661 5.77414 6.78175C5.86164 6.1669 6.07762 5.60212 6.39476 5.15884C6.71191 4.71556 7.11598 4.41368 7.55587 4.29137C7.99576 4.16907 8.45173 4.23184 8.8661 4.47175C9.28047 4.71165 9.63464 5.11791 9.88382 5.63916C10.133 6.1604 10.266 6.77322 10.266 7.40012C10.2652 8.24042 10.026 9.04599 9.60091 9.64017C9.17581 10.2344 8.59947 10.5687 7.99828 10.5698ZM7.99828 5.6392C7.74911 5.6392 7.50553 5.74248 7.29835 5.93597C7.09117 6.12946 6.92969 6.40448 6.83434 6.72625C6.73898 7.04801 6.71403 7.40208 6.76264 7.74366C6.81126 8.08524 6.93124 8.39901 7.10744 8.64528C7.28363 8.89155 7.50811 9.05926 7.7525 9.1272C7.99688 9.19515 8.2502 9.16028 8.4804 9.027C8.71061 8.89372 8.90737 8.66802 9.0458 8.37843C9.18423 8.08885 9.25812 7.7484 9.25812 7.40012C9.25786 6.93321 9.12504 6.48553 8.88883 6.15538C8.65262 5.82522 8.33233 5.63958 7.99828 5.6392Z" fill="#FDFDFD"/>
</svg>
