<svg width="16" height="16" viewBox="0 0 16 16" fill="none" xmlns="http://www.w3.org/2000/svg">
<path fill-rule="evenodd" clip-rule="evenodd" d="M5.33317 8.5C3.03198 8.5 1.1665 10.3655 1.1665 12.6667V13.3333C1.1665 13.6095 0.942646 13.8333 0.666504 13.8333C0.390362 13.8333 0.166504 13.6095 0.166504 13.3333V12.6667C0.166504 9.8132 2.4797 7.5 5.33317 7.5C8.18664 7.5 10.4998 9.8132 10.4998 12.6667V13.3333C10.4998 13.6095 10.276 13.8333 9.99984 13.8333C9.72369 13.8333 9.49984 13.6095 9.49984 13.3333V12.6667C9.49984 10.3655 7.63436 8.5 5.33317 8.5Z" fill="#666666"/>
<path fill-rule="evenodd" clip-rule="evenodd" d="M11.9998 6.5C10.435 6.5 9.1665 7.76853 9.1665 9.33333H8.1665C8.1665 7.21624 9.88275 5.5 11.9998 5.5C14.1169 5.5 15.8332 7.21624 15.8332 9.33333V9.66667C15.8332 9.94281 15.6093 10.1667 15.3332 10.1667C15.057 10.1667 14.8332 9.94281 14.8332 9.66667V9.33333C14.8332 7.76853 13.5646 6.5 11.9998 6.5Z" fill="#666666"/>
<path fill-rule="evenodd" clip-rule="evenodd" d="M5.33317 3.1665C4.13655 3.1665 3.1665 4.13655 3.1665 5.33317C3.1665 6.52979 4.13655 7.49984 5.33317 7.49984C6.52979 7.49984 7.49984 6.52979 7.49984 5.33317C7.49984 4.13655 6.52979 3.1665 5.33317 3.1665ZM2.1665 5.33317C2.1665 3.58427 3.58427 2.1665 5.33317 2.1665C7.08207 2.1665 8.49984 3.58427 8.49984 5.33317C8.49984 7.08207 7.08207 8.49984 5.33317 8.49984C3.58427 8.49984 2.1665 7.08207 2.1665 5.33317Z" fill="#666666"/>
<path fill-rule="evenodd" clip-rule="evenodd" d="M12 2.5C11.1716 2.5 10.5 3.17157 10.5 4C10.5 4.82843 11.1716 5.5 12 5.5C12.8284 5.5 13.5 4.82843 13.5 4C13.5 3.17157 12.8284 2.5 12 2.5ZM9.5 4C9.5 2.61929 10.6193 1.5 12 1.5C13.3807 1.5 14.5 2.61929 14.5 4C14.5 5.38071 13.3807 6.5 12 6.5C10.6193 6.5 9.5 5.38071 9.5 4Z" fill="#666666"/>
</svg>
