<svg width="16" height="17" viewBox="0 0 16 17" fill="none" xmlns="http://www.w3.org/2000/svg">
<path fill-rule="evenodd" clip-rule="evenodd" d="M8 7.6665C8.27614 7.6665 8.5 7.89036 8.5 8.1665V11.4998C8.5 11.776 8.27614 11.9998 8 11.9998C7.72386 11.9998 7.5 11.776 7.5 11.4998L7.5 8.1665C7.5 7.89036 7.72386 7.6665 8 7.6665Z" fill="white"/>
<path fill-rule="evenodd" clip-rule="evenodd" d="M8.34115 5.12738C8.54641 5.31211 8.56305 5.62826 8.37832 5.83351L8.37165 5.84092C8.18692 6.04617 7.87078 6.06281 7.66552 5.87808C7.46027 5.69335 7.44363 5.37721 7.62836 5.17195L7.63502 5.16455C7.81975 4.95929 8.1359 4.94265 8.34115 5.12738Z" fill="#FCFCFC"/>
<path fill-rule="evenodd" clip-rule="evenodd" d="M8 2.3335C4.59424 2.3335 1.83333 5.09441 1.83333 8.50016C1.83333 11.9059 4.59424 14.6668 8 14.6668C11.4058 14.6668 14.1667 11.9059 14.1667 8.50016C14.1667 5.09441 11.4058 2.3335 8 2.3335ZM0.833328 8.50016C0.833328 4.54212 4.04195 1.3335 8 1.3335C11.958 1.3335 15.1667 4.54212 15.1667 8.50016C15.1667 12.4582 11.958 15.6668 8 15.6668C4.04195 15.6668 0.833328 12.4582 0.833328 8.50016Z" fill="#FCFCFC"/>
</svg>
