<svg width="24" height="24" viewBox="0 0 24 24" fill="none" xmlns="http://www.w3.org/2000/svg">
<path fill-rule="evenodd" clip-rule="evenodd" d="M17 15.75C17.6904 15.75 18.25 16.3096 18.25 17C18.25 17.6904 17.6904 18.25 17 18.25C16.3096 18.25 15.75 17.6904 15.75 17C15.75 16.3096 16.3096 15.75 17 15.75ZM19.75 17C19.75 15.4812 18.5188 14.25 17 14.25C15.4812 14.25 14.25 15.4812 14.25 17C14.25 18.5188 15.4812 19.75 17 19.75C18.5188 19.75 19.75 18.5188 19.75 17Z" fill="#FCFCFC"/>
<path fill-rule="evenodd" clip-rule="evenodd" d="M7 5.75C7.69036 5.75 8.25 6.30964 8.25 7C8.25 7.69036 7.69036 8.25 7 8.25C6.30964 8.25 5.75 7.69036 5.75 7C5.75 6.30964 6.30964 5.75 7 5.75ZM9.75 7C9.75 5.48122 8.51878 4.25 7 4.25C5.48122 4.25 4.25 5.48122 4.25 7C4.25 8.51878 5.48122 9.75 7 9.75C8.51878 9.75 9.75 8.51878 9.75 7Z" fill="#FCFCFC"/>
<path fill-rule="evenodd" clip-rule="evenodd" d="M19.5303 4.46967C19.2374 4.17678 18.7626 4.17678 18.4697 4.46967L4.46967 18.4697C4.17678 18.7626 4.17678 19.2374 4.46967 19.5303C4.76256 19.8232 5.23744 19.8232 5.53033 19.5303L19.5303 5.53033C19.8232 5.23744 19.8232 4.76256 19.5303 4.46967Z" fill="#FCFCFC"/>
</svg>
