<svg width="20" height="20" viewBox="0 0 20 20" fill="none" xmlns="http://www.w3.org/2000/svg">
<path fill-rule="evenodd" clip-rule="evenodd" d="M13.7248 13.7246C13.9689 13.4805 14.3646 13.4805 14.6087 13.7246L17.942 17.0579C18.1861 17.302 18.1861 17.6977 17.942 17.9418C17.6979 18.1859 17.3022 18.1859 17.0581 17.9418L13.7248 14.6084C13.4807 14.3644 13.4807 13.9686 13.7248 13.7246Z" fill="#AA5AFA"/>
<path fill-rule="evenodd" clip-rule="evenodd" d="M9.16667 3.125C5.82995 3.125 3.125 5.82995 3.125 9.16667C3.125 12.5034 5.82995 15.2083 9.16667 15.2083C10.8381 15.2083 12.35 14.5304 13.4445 13.4331C14.5351 12.3395 15.2083 10.8323 15.2083 9.16667C15.2083 5.82995 12.5034 3.125 9.16667 3.125ZM1.875 9.16667C1.875 5.13959 5.13959 1.875 9.16667 1.875C13.1937 1.875 16.4583 5.13959 16.4583 9.16667C16.4583 11.1765 15.6443 12.9975 14.3295 14.3158C13.0101 15.6387 11.1835 16.4583 9.16667 16.4583C5.13959 16.4583 1.875 13.1937 1.875 9.16667Z" fill="#AA5AFA"/>
</svg>
