<svg width="17" height="16" viewBox="0 0 17 16" fill="none" xmlns="http://www.w3.org/2000/svg">
<g clip-path="url(#clip0_16_183)">
<path d="M9.38373 0.547621L10.9932 5.50402H16.2054C16.3729 5.50426 16.5359 5.55744 16.6713 5.65595C16.8066 5.75446 16.9074 5.89325 16.9591 6.05248C17.0108 6.2117 17.0108 6.3832 16.9592 6.54245C16.9075 6.70169 16.8068 6.84053 16.6715 6.93909L12.4554 10.0021L14.0659 14.9585C14.1174 15.1178 14.1172 15.2893 14.0653 15.4485C14.0134 15.6076 13.9126 15.7463 13.7771 15.8447C13.6416 15.9431 13.4785 15.9961 13.3111 15.9962C13.1437 15.9962 12.9805 15.9434 12.845 15.8451L8.62889 12.7821L4.4128 15.8451C4.27736 15.9437 4.11417 15.9968 3.94666 15.9968C3.77916 15.9969 3.61594 15.9439 3.48044 15.8454C3.34493 15.7469 3.24411 15.608 3.19244 15.4487C3.14078 15.2893 3.14091 15.1177 3.19284 14.9585L4.80331 10.0021L0.587222 6.93909C0.451903 6.84053 0.351219 6.70169 0.299573 6.54245C0.247926 6.3832 0.247962 6.2117 0.299675 6.05248C0.351388 5.89325 0.452129 5.75446 0.58749 5.65595C0.72285 5.55744 0.885896 5.50426 1.05331 5.50402H6.26649L7.87501 0.547621C7.92699 0.388526 8.02794 0.249939 8.16343 0.151672C8.29892 0.0534044 8.462 0.000488281 8.62937 0.000488281C8.79674 0.000488281 8.95983 0.0534044 9.09532 0.151672C9.2308 0.249939 9.33175 0.388526 9.38373 0.547621Z" fill="#EF9533"/>
</g>
<defs>
<clipPath id="clip0_16_183">
<rect width="16.7413" height="16" fill="white" transform="translate(0.258728)"/>
</clipPath>
</defs>
</svg>
