<svg width="48" height="50" viewBox="0 0 48 50" fill="none" xmlns="http://www.w3.org/2000/svg">
<path fill-rule="evenodd" clip-rule="evenodd" d="M0 2C0 0.895432 0.895431 0 2 0H46C47.1046 0 48 0.895431 48 2V48C48 49.1046 47.1046 50 46 50H4.44945C4.64175 49.6405 4.74526 49.2587 4.74526 48.863C4.74526 47.1247 2.74778 45.6545 0 45.1692V42.1022C2.74778 41.6169 4.74526 40.1467 4.74526 38.4084C4.74526 36.6701 2.74778 35.1999 0 34.7146V31.6476C2.74778 31.1623 4.74526 29.6922 4.74526 27.9538C4.74526 26.2155 2.74778 24.7454 0 24.2601V21.1936C2.74778 20.7083 4.74526 19.2381 4.74526 17.4998C4.74526 15.7615 2.74778 14.2913 0 13.806V10.7385C2.74778 10.2532 4.74526 8.78298 4.74526 7.04468C4.74526 5.30637 2.74778 3.83619 0 3.35089V2Z" fill="url(#paint0_linear_67_2433)"/>
<defs>
<linearGradient id="paint0_linear_67_2433" x1="0" y1="32.5" x2="107.564" y2="32.5" gradientUnits="userSpaceOnUse">
<stop stop-color="#A060FA"/>
<stop offset="1" stop-color="#C4017D"/>
</linearGradient>
</defs>
</svg>
