<svg width="16" height="16" viewBox="0 0 16 16" fill="none" xmlns="http://www.w3.org/2000/svg">
<path fill-rule="evenodd" clip-rule="evenodd" d="M7.99992 3.1665C6.8033 3.1665 5.83325 4.13655 5.83325 5.33317C5.83325 6.52979 6.8033 7.49984 7.99992 7.49984C9.19654 7.49984 10.1666 6.52979 10.1666 5.33317C10.1666 4.13655 9.19654 3.1665 7.99992 3.1665ZM4.83325 5.33317C4.83325 3.58427 6.25102 2.1665 7.99992 2.1665C9.74882 2.1665 11.1666 3.58427 11.1666 5.33317C11.1666 7.08207 9.74882 8.49984 7.99992 8.49984C6.25102 8.49984 4.83325 7.08207 4.83325 5.33317Z" fill="url(#paint0_linear_62_953)"/>
<path fill-rule="evenodd" clip-rule="evenodd" d="M7.99992 8.5C5.69873 8.5 3.83325 10.3655 3.83325 12.6667V13.3333C3.83325 13.6095 3.60939 13.8333 3.33325 13.8333C3.05711 13.8333 2.83325 13.6095 2.83325 13.3333V12.6667C2.83325 9.8132 5.14645 7.5 7.99992 7.5C8.79142 7.5 9.54267 7.67832 10.2145 7.99746C10.4639 8.11595 10.57 8.4142 10.4516 8.66363C10.3331 8.91306 10.0348 9.01921 9.78537 8.90072C9.24482 8.64393 8.63988 8.5 7.99992 8.5Z" fill="url(#paint1_linear_62_953)"/>
<path fill-rule="evenodd" clip-rule="evenodd" d="M7.70525 10.2626C7.55252 10.3741 7.47573 10.5622 7.50682 10.7487L8.17348 14.7487C8.21367 14.9898 8.42226 15.1665 8.66668 15.1665H14C14.2444 15.1665 14.453 14.9898 14.4932 14.7487L15.1599 10.7487C15.191 10.5622 15.1142 10.3741 14.9614 10.2626C14.8087 10.1512 14.6062 10.1354 14.438 10.2219L12.461 11.2386L11.7175 10.3464C11.6225 10.2324 11.4817 10.1665 11.3333 10.1665C11.185 10.1665 11.0442 10.2324 10.9492 10.3464L10.2057 11.2386L8.22869 10.2219C8.06054 10.1354 7.85799 10.1512 7.70525 10.2626ZM8.65693 11.5666L10.1047 12.3111C10.3129 12.4182 10.5676 12.3665 10.7175 12.1866L11.3333 11.4475L11.9492 12.1866C12.0991 12.3665 12.3538 12.4182 12.562 12.3111L14.0098 11.5666L13.5764 14.1665H9.09024L8.65693 11.5666Z" fill="url(#paint2_linear_62_953)"/>
<defs>
<linearGradient id="paint0_linear_62_953" x1="4.83325" y1="8.49984" x2="11.6151" y2="3.17291" gradientUnits="userSpaceOnUse">
<stop stop-color="#4E6AFF"/>
<stop offset="1" stop-color="#77BAAD"/>
</linearGradient>
<linearGradient id="paint1_linear_62_953" x1="2.83325" y1="13.8333" x2="9.80495" y2="7.20435" gradientUnits="userSpaceOnUse">
<stop stop-color="#4E6AFF"/>
<stop offset="1" stop-color="#77BAAD"/>
</linearGradient>
<linearGradient id="paint2_linear_62_953" x1="15.1667" y1="10.1665" x2="11.6537" y2="17.0243" gradientUnits="userSpaceOnUse">
<stop stop-color="#4E6AFF"/>
<stop offset="1" stop-color="#77BAAD"/>
</linearGradient>
</defs>
</svg>
