<svg width="21" height="20" viewBox="0 0 21 20" fill="none" xmlns="http://www.w3.org/2000/svg">
<g clip-path="url(#clip0_67_1800)">
<path fill-rule="evenodd" clip-rule="evenodd" d="M10.3337 10.625C8.37765 10.625 6.79199 12.2107 6.79199 14.1667V15C6.79199 15.3452 6.51217 15.625 6.16699 15.625C5.82181 15.625 5.54199 15.3452 5.54199 15V14.1667C5.54199 11.5203 7.68729 9.375 10.3337 9.375C12.98 9.375 15.1253 11.5203 15.1253 14.1667V15C15.1253 15.3452 14.8455 15.625 14.5003 15.625C14.1551 15.625 13.8753 15.3452 13.8753 15V14.1667C13.8753 12.2107 12.2897 10.625 10.3337 10.625Z" fill="#9F9E9F"/>
<path fill-rule="evenodd" clip-rule="evenodd" d="M3.66699 12.2915C2.63146 12.2915 1.79199 13.131 1.79199 14.1665V14.9998C1.79199 15.345 1.51217 15.6248 1.16699 15.6248C0.821814 15.6248 0.541992 15.345 0.541992 14.9998V14.1665C0.541992 12.4406 1.9411 11.0415 3.66699 11.0415V12.2915Z" fill="#9F9E9F"/>
<path fill-rule="evenodd" clip-rule="evenodd" d="M17 12.2915C18.0355 12.2915 18.875 13.131 18.875 14.1665V14.9998C18.875 15.345 19.1548 15.6248 19.5 15.6248C19.8452 15.6248 20.125 15.345 20.125 14.9998V14.1665C20.125 12.4406 18.7259 11.0415 17 11.0415V12.2915Z" fill="#9F9E9F"/>
<path fill-rule="evenodd" clip-rule="evenodd" d="M10.3335 5.625C9.29796 5.625 8.4585 6.46447 8.4585 7.5C8.4585 8.53553 9.29796 9.375 10.3335 9.375C11.369 9.375 12.2085 8.53553 12.2085 7.5C12.2085 6.46447 11.369 5.625 10.3335 5.625ZM7.2085 7.5C7.2085 5.77411 8.60761 4.375 10.3335 4.375C12.0594 4.375 13.4585 5.77411 13.4585 7.5C13.4585 9.22589 12.0594 10.625 10.3335 10.625C8.60761 10.625 7.2085 9.22589 7.2085 7.5Z" fill="#9F9E9F"/>
<path fill-rule="evenodd" clip-rule="evenodd" d="M3.66667 8.9585C3.09137 8.9585 2.625 9.42487 2.625 10.0002C2.625 10.5755 3.09137 11.0418 3.66667 11.0418C4.24196 11.0418 4.70833 10.5755 4.70833 10.0002C4.70833 9.42487 4.24196 8.9585 3.66667 8.9585ZM1.375 10.0002C1.375 8.73451 2.40101 7.7085 3.66667 7.7085C4.93232 7.7085 5.95833 8.73451 5.95833 10.0002C5.95833 11.2658 4.93232 12.2918 3.66667 12.2918C2.40101 12.2918 1.375 11.2658 1.375 10.0002Z" fill="#9F9E9F"/>
<path fill-rule="evenodd" clip-rule="evenodd" d="M17.0002 8.9585C16.4249 8.9585 15.9585 9.42487 15.9585 10.0002C15.9585 10.5755 16.4249 11.0418 17.0002 11.0418C17.5755 11.0418 18.0418 10.5755 18.0418 10.0002C18.0418 9.42487 17.5755 8.9585 17.0002 8.9585ZM14.7085 10.0002C14.7085 8.73451 15.7345 7.7085 17.0002 7.7085C18.2658 7.7085 19.2918 8.73451 19.2918 10.0002C19.2918 11.2658 18.2658 12.2918 17.0002 12.2918C15.7345 12.2918 14.7085 11.2658 14.7085 10.0002Z" fill="#9F9E9F"/>
</g>
<defs>
<clipPath id="clip0_67_1800">
<rect width="20" height="20" fill="white" transform="translate(0.333496)"/>
</clipPath>
</defs>
</svg>
