<svg xmlns="http://www.w3.org/2000/svg" width="21" height="20" viewBox="0 0 21 20" fill="none">
<path fill-rule="evenodd" clip-rule="evenodd" d="M10.6664 2.72772L8.39303 7.59932C8.28128 7.83879 8.08879 8.03128 7.84932 8.14303L2.97772 10.4164L7.84932 12.6899C8.08879 12.8016 8.28128 12.9941 8.39303 13.2336L10.6664 18.1052L12.9399 13.2336C13.0516 12.9941 13.2441 12.8016 13.4836 12.6899L18.3552 10.4164L13.4836 8.14303C13.2441 8.03128 13.0516 7.83879 12.9399 7.59932L10.6664 2.72772ZM9.64699 1.95638C10.051 1.09071 11.2819 1.09071 11.6859 1.95638L14.0534 7.02952L19.1265 9.39699C19.9922 9.80097 19.9922 11.0319 19.1265 11.4359L14.0534 13.8034L11.6859 18.8765C11.2819 19.7422 10.051 19.7422 9.64699 18.8765L7.27952 13.8034L2.20638 11.4359C1.34071 11.0319 1.34071 9.80097 2.20638 9.39699L7.27952 7.02952L9.64699 1.95638Z" fill="#ef9533"/>
</svg>