<svg width="18" height="18" viewBox="0 0 18 18" fill="none" xmlns="http://www.w3.org/2000/svg">
<path fill-rule="evenodd" clip-rule="evenodd" d="M6.22432 0.968745C6.40822 1.08271 6.52009 1.28366 6.52009 1.5C6.52009 4.94935 7.37524 7.41288 8.98118 9.01882C10.5871 10.6248 13.0507 11.4799 16.5 11.4799C16.7163 11.4799 16.9173 11.5918 17.0313 11.7757C17.1452 11.9596 17.156 12.1893 17.0597 12.3831C15.6636 15.1922 12.7637 17.125 9.41117 17.125C4.69677 17.125 0.875 13.3032 0.875 8.58883C0.875 5.23631 2.80775 2.33636 5.61695 0.940304C5.81068 0.844026 6.04043 0.854784 6.22432 0.968745ZM5.29763 2.57396C3.38102 3.88728 2.125 6.09181 2.125 8.58883C2.125 12.6129 5.38713 15.875 9.41117 15.875C11.9082 15.875 14.1127 14.619 15.426 12.7024C12.2986 12.5379 9.82802 11.6334 8.0973 9.90271C6.36657 8.17199 5.46209 5.70141 5.29763 2.57396Z" fill="#EF9533"/>
</svg>
