<svg width="20" height="20" viewBox="0 0 20 20" fill="none" xmlns="http://www.w3.org/2000/svg">
<path fill-rule="evenodd" clip-rule="evenodd" d="M9.99984 10.625C7.12335 10.625 4.7915 12.9569 4.7915 15.8333V16.6667C4.7915 17.0118 4.51168 17.2917 4.1665 17.2917C3.82133 17.2917 3.5415 17.0118 3.5415 16.6667V15.8333C3.5415 12.2665 6.433 9.375 9.99984 9.375C13.5667 9.375 16.4582 12.2665 16.4582 15.8333V16.6667C16.4582 17.0118 16.1783 17.2917 15.8332 17.2917C15.488 17.2917 15.2082 17.0118 15.2082 16.6667V15.8333C15.2082 12.9569 12.8763 10.625 9.99984 10.625Z" fill="#9F9E9F"/>
<path fill-rule="evenodd" clip-rule="evenodd" d="M9.99984 3.9585C8.50407 3.9585 7.2915 5.17106 7.2915 6.66683C7.2915 8.1626 8.50407 9.37516 9.99984 9.37516C11.4956 9.37516 12.7082 8.1626 12.7082 6.66683C12.7082 5.17106 11.4956 3.9585 9.99984 3.9585ZM6.0415 6.66683C6.0415 4.4807 7.81371 2.7085 9.99984 2.7085C12.186 2.7085 13.9582 4.4807 13.9582 6.66683C13.9582 8.85296 12.186 10.6252 9.99984 10.6252C7.81371 10.6252 6.0415 8.85296 6.0415 6.66683Z" fill="#9F9E9F"/>
</svg>
